<svg xmlns="http://www.w3.org/2000/svg" xmlns:xlink="http://www.w3.org/1999/xlink" width="886.143" height="889.39" viewBox="0 0 886.143 889.39"><defs><style>.a,.aa,.b,.c,.d,.e,.f,.g,.h,.i,.j,.k,.l,.m,.n,.o,.p,.s,.y{fill:none;stroke-linecap:round;stroke-linejoin:round;}.a,.b,.c,.d,.e,.f,.g,.h,.i,.j,.k,.l,.m,.n,.o,.p{stroke:#9568ff;stroke-dasharray:0 4;}.a{stroke-width:0.75px;}.b{stroke-width:0.967px;}.c{stroke-width:1.183px;}.d{stroke-width:1.4px;}.e{stroke-width:1.617px;}.f{stroke-width:1.833px;}.g{stroke-width:2.05px;}.h{stroke-width:2.267px;}.i{stroke-width:2.483px;}.j{stroke-width:2.7px;}.k{stroke-width:2.917px;}.l{stroke-width:3.133px;}.m{stroke-width:3.35px;}.n{stroke-width:3.567px;}.o{stroke-width:3.783px;}.p{stroke-width:4px;}.q{opacity:0.23;}.r{fill:url(#a);}.aa,.s{stroke:#fff;}.aa,.s,.y{stroke-width:2px;}.s{stroke-dasharray:0 5;}.t{fill:url(#p);}.u{opacity:0.32;fill:url(#q);}.v{fill:url(#r);}.w{fill:#fff;}.x{opacity:0.49;isolation:isolate;}.y{stroke:#0bccfc;}.z{opacity:0.48;fill:url(#s);}.aa{stroke-dasharray:3 6;}</style><linearGradient id="a" y1="0.5" x2="1" y2="0.5" gradientUnits="objectBoundingBox"><stop offset="0" stop-color="#fff"/><stop offset="0.214" stop-color="#cabeeb" stop-opacity="0.714"/><stop offset="0.425" stop-color="#9b84da" stop-opacity="0.459"/><stop offset="0.616" stop-color="#7657cd" stop-opacity="0.263"/><stop offset="0.781" stop-color="#5c37c3" stop-opacity="0.118"/><stop offset="0.914" stop-color="#4b23be" stop-opacity="0.031"/><stop offset="1" stop-color="#461cbc" stop-opacity="0"/></linearGradient><linearGradient id="p" x1="0.562" y1="0.409" x2="-0.265" y2="1.634" gradientUnits="objectBoundingBox"><stop offset="0" stop-color="#8651ff"/><stop offset="0.49" stop-color="#971dac" stop-opacity="0.443"/><stop offset="0.731" stop-color="#6b1cb5" stop-opacity="0.204"/><stop offset="0.907" stop-color="#501cba" stop-opacity="0.055"/><stop offset="1" stop-color="#461cbc" stop-opacity="0"/></linearGradient><linearGradient id="q" x1="-0.201" y1="0.859" x2="0.973" y2="0.5" gradientUnits="objectBoundingBox"><stop offset="0" stop-color="#ff00b2"/><stop offset="0.082" stop-color="#ff00b2" stop-opacity="0.89"/><stop offset="0.327" stop-color="#ff00b2" stop-opacity="0.569"/><stop offset="0.55" stop-color="#ff00b2" stop-opacity="0.329"/><stop offset="0.743" stop-color="#ff00b2" stop-opacity="0.149"/><stop offset="0.9" stop-color="#ff00b2" stop-opacity="0.039"/><stop offset="1" stop-color="#ff00b2" stop-opacity="0"/></linearGradient><linearGradient id="r" x1="0.219" y1="0.415" x2="0.732" y2="-0.742" gradientUnits="objectBoundingBox"><stop offset="0" stop-color="#ff00b2"/><stop offset="0.55" stop-color="#ff00b2" stop-opacity="0.329"/><stop offset="0.743" stop-color="#ff00b2" stop-opacity="0.149"/><stop offset="0.9" stop-color="#ff00b2" stop-opacity="0.039"/><stop offset="1" stop-color="#ff00b2" stop-opacity="0"/></linearGradient><linearGradient id="s" x1="0.26" y1="0.367" x2="-0.326" y2="1.321" gradientUnits="objectBoundingBox"><stop offset="0" stop-color="#12008d"/><stop offset="1" stop-color="#12008d" stop-opacity="0"/></linearGradient></defs><g transform="translate(233.143 -149.753)"><g transform="translate(-717.444 153.873)"><circle class="a" cx="215.36" cy="215.36" r="215.36" transform="translate(510.995 427.856)"/><circle class="b" cx="204.108" cy="204.108" r="204.108" transform="translate(522.247 439.108)"/><circle class="c" cx="192.855" cy="192.855" r="192.855" transform="translate(533.5 450.361)"/><circle class="d" cx="181.602" cy="181.602" r="181.602" transform="translate(544.753 461.613)"/><circle class="e" cx="170.35" cy="170.35" r="170.35" transform="translate(485.444 643.216) rotate(-45)"/><circle class="f" cx="159.097" cy="159.097" r="159.097" transform="translate(567.258 484.118)"/><circle class="g" cx="147.845" cy="147.845" r="147.845" transform="translate(578.51 495.371)"/><circle class="h" cx="136.592" cy="136.592" r="136.592" transform="translate(533.184 643.216) rotate(-45)"/><circle class="i" cx="125.34" cy="125.34" r="125.34" transform="translate(601.015 517.876)"/><circle class="j" cx="114.087" cy="114.087" r="114.087" transform="translate(565.011 643.216) rotate(-45)"/><circle class="k" cx="102.835" cy="102.835" r="102.835" transform="translate(591.995 587.562) rotate(-22.5)"/><circle class="l" cx="91.582" cy="91.582" r="91.582" transform="translate(634.773 551.634)"/><circle class="m" cx="80.33" cy="80.33" r="80.33" transform="translate(621.399 599.742) rotate(-22.5)"/><circle class="n" cx="69.077" cy="69.077" r="69.077" transform="matrix(0.924, -0.383, 0.383, 0.924, 636.102, 605.832)"/><circle class="o" cx="57.824" cy="57.824" r="57.824" transform="translate(660.015 691.031) rotate(-80.783)"/><circle class="p" cx="46.572" cy="46.572" r="46.572" transform="matrix(0.16, -0.987, 0.987, 0.16, 672.925, 681.726)"/></g><g class="q" transform="translate(775.558 325.371) rotate(90)"><path class="r" d="M103.374,485.53c-.075.167-.15.334-.224.5a3.773,3.773,0,0,0,.733,4.115L190.5,580.915a3.77,3.77,0,0,0,4.077.925c.171-.065.342-.133.512-.2Z" transform="translate(-1.592 -12.044)"/><path class="r" d="M109.51,474.151l-.016.025a3.677,3.677,0,0,0,.445,4.509l91.055,95.421a3.676,3.676,0,0,0,4.483.655l.026-.014Z" transform="translate(-2.945 -9.514)"/><path class="r" d="M116.568,464.086c-.61.724-1.214,1.453-1.8,2.2l97.836,102.528c.775-.546,1.531-1.115,2.283-1.691Z" transform="translate(-4.246 -7.276)"/><path class="r" d="M95.912,513.261q-.114,1.041-.2,2.09a3.742,3.742,0,0,0,1.037,2.872L166.766,591.6a3.738,3.738,0,0,0,2.82,1.17q1.052-.035,2.1-.1Z" transform="translate(-0.006 -18.209)"/><path class="r" d="M100.45,553.6a70.524,70.524,0,0,0,2.666,6.582,3.906,3.906,0,0,0,.715,1.044L134.1,592.953a3.852,3.852,0,0,0,1.009.763,70.773,70.773,0,0,0,6.451,2.971Z" transform="translate(-1.062 -27.178)"/><path class="r" d="M98.7,498.43q-.166.591-.323,1.187a3.782,3.782,0,0,0,.943,3.548l79.853,83.682a3.779,3.779,0,0,0,3.5,1.108q.6-.127,1.2-.266Z" transform="translate(-0.575 -14.912)"/><path class="r" d="M95.675,530.772c.09,1.152.218,2.293.367,3.427a3.781,3.781,0,0,0,1.02,2.11l55.535,58.2a3.78,3.78,0,0,0,2.06,1.116c1.126.2,2.259.383,3.405.528Z" transform="translate(0 -22.102)"/><path class="r" d="M134.658,447.549q-1.174.81-2.31,1.664l98.191,102.9q.905-1.1,1.768-2.23Z" transform="translate(-8.153 -3.6)"/><path class="r" d="M206.316,434a3.781,3.781,0,0,0-2-1.109q-1.745-.341-3.521-.6l60.966,63.89q-.173-1.785-.43-3.544a3.773,3.773,0,0,0-1.014-2.053Z" transform="translate(-23.37 -0.208)"/><path class="r" d="M231.984,443.073a3.95,3.95,0,0,0-.9-.7,71.591,71.591,0,0,0-7-3.486l38.58,40.43a71.925,71.925,0,0,0-3.155-7.153,3.927,3.927,0,0,0-.661-.929Z" transform="translate(-28.55 -1.673)"/><path class="r" d="M187.925,432.53a3.738,3.738,0,0,0-2.765-1.171q-1.094.019-2.181.072l74.826,78.414q.1-1.083.174-2.175a3.74,3.74,0,0,0-1.041-2.817Z" transform="translate(-19.41)"/><path class="r" d="M159.22,437.988a3.752,3.752,0,0,0-4.015-.954q-.292.108-.582.22l91.238,95.614q.125-.286.247-.572a3.754,3.754,0,0,0-.764-4.055Z" transform="translate(-13.106 -1.211)"/><path class="r" d="M147.369,443.38a3.687,3.687,0,0,0-4.457-.678l-.058.032L238.55,543.017h0a3.771,3.771,0,0,0-.479-4.586Z" transform="translate(-10.489 -2.419)"/><path class="r" d="M223.913,558.831,125.049,455.226q-1.044.948-2.053,1.932l98.89,103.633Q222.92,559.832,223.913,558.831Z" transform="translate(-6.074 -5.306)"/><path class="r" d="M172.579,434.2a3.777,3.777,0,0,0-3.454-1.117q-.631.125-1.258.262l84.486,88.538q.166-.62.321-1.244a3.78,3.78,0,0,0-.955-3.5Z" transform="translate(-16.05 -0.367)"/></g><circle class="s" cx="31" cy="31" r="31" transform="translate(-31 457)"/><path class="t" d="M492.648,456c-20.88-27.078-53.45-45.49-87.789-45.584-14.806-.041-29.586,2.869-44.347,1.719A81.846,81.846,0,0,1,306.649,385.6s-9.468-17.842-33.692-59.368S202.015,257.018,155.3,267.4s-63.9-1.768-63.9-1.768c-16.166-9.477-29.638-25.922-29.954-44.658-.3-18.047,11.249-34.152,14.267-51.947,4.963-29.256-15.326-58.909-42.455-70.934C17.83,91.254.867,89.306-16,90.828V456Z" transform="translate(16 343.658)"/><g transform="translate(-27 528.979)"><path class="u" d="M-110.667,406.021H510.267V142.829c-1.863-1.654-3.7-3.327-5.53-4.994l-2.984-3.116c-16.213,8.479-32.648,17.114-45.98,29.644-19.943,18.743-31.308,44.559-45.442,68s-33.571,46.373-60.288,52.308c-23,5.11-46.919-3.508-67.354-15.241s-39.066-26.723-60.64-36.2c-38.062-16.725-82.47-14.656-121.9-1.477S25.561,268.418-7.3,293.89q-26.231,20.334-50.931,42.546c-21.712,19.525-43.6,42.686-52.439,69.585" transform="translate(116.667 -134.72)"/><path class="v" d="M587.58,348.262c-3.445,6.152-6.882,12.306-10.5,18.3C562.947,390,543.51,412.939,516.793,418.874c-23,5.11-46.919-3.508-67.354-15.241s-39.066-26.723-60.64-36.2c-38.062-16.725-82.47-14.656-121.9-1.477S192.311,402.625,159.454,428.1q-26.06,20.2-50.609,42.258H587.58Z" transform="translate(39.534 -199.055)"/></g><g transform="translate(207.211 280.76)"><g transform="translate(71.789 399.24)"><path class="w" d="M74.879,501.952a1.81,1.81,0,1,1-2.56,0A1.809,1.809,0,0,1,74.879,501.952Z" transform="translate(-71.789 -387.047)"/><path class="w" d="M91.911,484.92a1.811,1.811,0,1,1-2.561,0A1.813,1.813,0,0,1,91.911,484.92Z" transform="translate(-69.757 -389.079)"/><path class="w" d="M108.941,467.891a1.811,1.811,0,1,1-2.561,0A1.813,1.813,0,0,1,108.941,467.891Z" transform="translate(-67.725 -391.111)"/><circle class="w" cx="1.811" cy="1.811" r="1.811" transform="translate(57.187 57.187)"/><path class="w" d="M143,433.831a1.811,1.811,0,1,1-2.561,0A1.811,1.811,0,0,1,143,433.831Z" transform="translate(-63.66 -395.176)"/><circle class="w" cx="1.811" cy="1.811" r="1.811" transform="translate(95.312 19.062)"/><path class="w" d="M177.06,399.771a1.81,1.81,0,1,1-2.56,0A1.809,1.809,0,0,1,177.06,399.771Z" transform="translate(-59.596 -399.24)"/></g><g transform="translate(88.433 415.884)"><path class="w" d="M89.749,516.821a1.811,1.811,0,1,1-2.561,0A1.811,1.811,0,0,1,89.749,516.821Z" transform="translate(-86.659 -401.917)"/><path class="w" d="M106.779,499.791a1.811,1.811,0,1,1-2.561,0A1.81,1.81,0,0,1,106.779,499.791Z" transform="translate(-84.627 -403.949)"/><circle class="w" cx="1.811" cy="1.811" r="1.811" transform="translate(38.125 76.249)"/><circle class="w" cx="1.811" cy="1.811" r="1.811" transform="translate(57.187 57.187)"/><circle class="w" cx="1.811" cy="1.811" r="1.811" transform="translate(76.249 38.124)"/><path class="w" d="M174.9,431.669a1.811,1.811,0,1,1-2.561,0A1.813,1.813,0,0,1,174.9,431.669Z" transform="translate(-76.498 -412.078)"/><path class="w" d="M191.931,414.639a1.811,1.811,0,1,1-2.561,0A1.813,1.813,0,0,1,191.931,414.639Z" transform="translate(-74.466 -414.11)"/></g><g transform="translate(105.077 432.528)"><path class="w" d="M104.62,531.69a1.811,1.811,0,1,1-2.561,0A1.811,1.811,0,0,1,104.62,531.69Z" transform="translate(-101.528 -416.786)"/><path class="w" d="M121.65,514.659a1.811,1.811,0,1,1-2.561,0A1.813,1.813,0,0,1,121.65,514.659Z" transform="translate(-99.496 -418.818)"/><path class="w" d="M138.68,497.629a1.811,1.811,0,1,1-2.561,0A1.81,1.81,0,0,1,138.68,497.629Z" transform="translate(-97.464 -420.85)"/><path class="w" d="M155.71,480.6a1.811,1.811,0,1,1-2.561,0A1.811,1.811,0,0,1,155.71,480.6Z" transform="translate(-95.431 -422.882)"/><path class="w" d="M172.74,463.57a1.811,1.811,0,1,1-2.561,0A1.811,1.811,0,0,1,172.74,463.57Z" transform="translate(-93.399 -424.915)"/><circle class="w" cx="1.811" cy="1.811" r="1.811" transform="translate(95.312 19.062)"/><path class="w" d="M206.8,429.51a1.81,1.81,0,1,1-2.56,0A1.809,1.809,0,0,1,206.8,429.51Z" transform="translate(-89.335 -428.979)"/></g><g transform="translate(121.721 449.172)"><circle class="w" cx="1.811" cy="1.811" r="1.811" transform="translate(0 114.374)"/><circle class="w" cx="1.811" cy="1.811" r="1.811" transform="translate(19.062 95.312)"/><path class="w" d="M153.548,512.5a1.811,1.811,0,1,1-2.56,0A1.811,1.811,0,0,1,153.548,512.5Z" transform="translate(-112.333 -435.72)"/><path class="w" d="M170.58,495.47a1.811,1.811,0,1,1-2.561,0A1.813,1.813,0,0,1,170.58,495.47Z" transform="translate(-110.301 -437.752)"/><path class="w" d="M187.61,478.44a1.811,1.811,0,1,1-2.561,0A1.811,1.811,0,0,1,187.61,478.44Z" transform="translate(-108.269 -439.784)"/><path class="w" d="M204.64,461.41a1.811,1.811,0,1,1-2.561,0A1.811,1.811,0,0,1,204.64,461.41Z" transform="translate(-106.237 -441.816)"/><circle class="w" cx="1.811" cy="1.811" r="1.811" transform="translate(114.374)"/></g><g transform="translate(138.365 465.815)"><circle class="w" cx="1.811" cy="1.811" r="1.811" transform="translate(0 114.374)"/><circle class="w" cx="1.811" cy="1.811" r="1.811" transform="translate(19.062 95.312)"/><path class="w" d="M168.419,527.37a1.811,1.811,0,1,1-2.561,0A1.809,1.809,0,0,1,168.419,527.37Z" transform="translate(-127.203 -450.589)"/><path class="w" d="M185.449,510.339a1.811,1.811,0,1,1-2.561,0A1.81,1.81,0,0,1,185.449,510.339Z" transform="translate(-125.171 -452.621)"/><path class="w" d="M202.478,493.309a1.811,1.811,0,1,1-2.56,0A1.811,1.811,0,0,1,202.478,493.309Z" transform="translate(-123.139 -454.654)"/><path class="w" d="M219.508,476.278a1.811,1.811,0,1,1-2.56,0A1.811,1.811,0,0,1,219.508,476.278Z" transform="translate(-121.106 -456.686)"/><path class="w" d="M236.538,459.249a1.811,1.811,0,1,1-2.56,0A1.811,1.811,0,0,1,236.538,459.249Z" transform="translate(-119.074 -458.718)"/></g><g transform="translate(155.009 482.46)"><path class="w" d="M149.227,576.3a1.811,1.811,0,1,1-2.56,0A1.811,1.811,0,0,1,149.227,576.3Z" transform="translate(-146.137 -461.395)"/><path class="w" d="M166.257,559.268a1.811,1.811,0,1,1-2.56,0A1.811,1.811,0,0,1,166.257,559.268Z" transform="translate(-144.105 -463.427)"/><path class="w" d="M183.289,542.239a1.811,1.811,0,1,1-2.561,0A1.813,1.813,0,0,1,183.289,542.239Z" transform="translate(-142.073 -465.459)"/><path class="w" d="M200.319,525.208a1.811,1.811,0,1,1-2.561,0A1.813,1.813,0,0,1,200.319,525.208Z" transform="translate(-140.04 -467.491)"/><path class="w" d="M217.349,508.179a1.811,1.811,0,1,1-2.561,0A1.809,1.809,0,0,1,217.349,508.179Z" transform="translate(-138.008 -469.524)"/><circle class="w" cx="1.811" cy="1.811" r="1.811" transform="translate(95.312 19.062)"/><path class="w" d="M251.408,474.119a1.811,1.811,0,1,1-2.561,0A1.809,1.809,0,0,1,251.408,474.119Z" transform="translate(-133.944 -473.588)"/></g><g transform="translate(171.653 499.104)"><path class="w" d="M164.1,591.169a1.811,1.811,0,1,1-2.561,0A1.811,1.811,0,0,1,164.1,591.169Z" transform="translate(-161.007 -476.264)"/><path class="w" d="M181.128,574.139a1.811,1.811,0,1,1-2.561,0A1.811,1.811,0,0,1,181.128,574.139Z" transform="translate(-158.975 -478.296)"/><circle class="w" cx="1.811" cy="1.811" r="1.811" transform="translate(38.124 76.249)"/><circle class="w" cx="1.811" cy="1.811" r="1.811" transform="translate(57.187 57.187)"/><circle class="w" cx="1.811" cy="1.811" r="1.811" transform="translate(76.249 38.125)"/><path class="w" d="M249.247,506.017a1.811,1.811,0,1,1-2.56,0A1.811,1.811,0,0,1,249.247,506.017Z" transform="translate(-150.846 -486.425)"/><circle class="w" cx="1.811" cy="1.811" r="1.811" transform="translate(114.374)"/></g><g transform="translate(188.297 515.748)"><path class="w" d="M178.966,606.038a1.81,1.81,0,1,1-2.56,0A1.81,1.81,0,0,1,178.966,606.038Z" transform="translate(-175.876 -491.134)"/><path class="w" d="M196,589.007a1.811,1.811,0,1,1-2.561,0A1.813,1.813,0,0,1,196,589.007Z" transform="translate(-173.844 -493.166)"/><path class="w" d="M213.028,571.978a1.811,1.811,0,1,1-2.561,0A1.813,1.813,0,0,1,213.028,571.978Z" transform="translate(-171.812 -495.198)"/><circle class="w" cx="1.811" cy="1.811" r="1.811" transform="translate(57.187 57.187)"/><path class="w" d="M247.087,537.918a1.811,1.811,0,1,1-2.561,0A1.81,1.81,0,0,1,247.087,537.918Z" transform="translate(-167.747 -499.263)"/><path class="w" d="M264.117,520.888a1.811,1.811,0,1,1-2.561,0A1.81,1.81,0,0,1,264.117,520.888Z" transform="translate(-165.715 -501.295)"/><path class="w" d="M281.147,503.858a1.81,1.81,0,1,1-2.56,0A1.809,1.809,0,0,1,281.147,503.858Z" transform="translate(-163.683 -503.327)"/></g></g><g transform="translate(-91.393 344.171)"><g class="x" transform="translate(20.385 -24.171)"><line class="y" y1="57.622" x2="57.622" transform="translate(57 -168.833)"/><line class="y" y1="57.622" x2="57.622" transform="translate(454.612 59.67)"/><line class="y" y1="183.964" x2="183.499" transform="translate(17.01 255.5)"/><line class="y" y1="57.622" x2="57.622" transform="translate(511.918 227)"/><line class="y" y1="57.622" x2="57.622" transform="translate(148.579 414.282)"/><line class="y" y1="57.622" x2="57.622" transform="translate(646.363 149.306)"/></g></g><path class="z" d="M-37.193,532V270.762a160.4,160.4,0,0,1,84.216,56.3c28.145,36.611,40.036,85.094,73.886,116.505,23.19,21.518,54.1,32.458,84.519,41.142s61.784,15.867,89.143,31.751A129.613,129.613,0,0,1,316,532Z" transform="translate(36.193 315.238)"/><circle class="aa" cx="42.5" cy="42.5" r="42.5" transform="translate(567 498)"/><path class="w" d="M635.386,423.226l-5.737-4.231a2.069,2.069,0,0,1-.438-2.895h0a2.071,2.071,0,0,1,2.9-.438l3.237,2.387a2.07,2.07,0,0,0,2.485-.021l4.842-3.7a2.072,2.072,0,0,1,2.485-.021l4.906,3.617a2.07,2.07,0,0,0,2.484-.021l4.847-3.7a2.07,2.07,0,0,1,2.485-.021l4.906,3.617a2.072,2.072,0,0,0,2.484-.021l4.85-3.7a2.072,2.072,0,0,1,2.484-.021l5.744,4.231a2.069,2.069,0,0,1,.439,2.895h0a2.07,2.07,0,0,1-2.9.439l-3.245-2.39a2.07,2.07,0,0,0-2.484.021l-4.85,3.7a2.07,2.07,0,0,1-2.484.02l-4.907-3.616a2.07,2.07,0,0,0-2.484.02l-4.847,3.7a2.07,2.07,0,0,1-2.484.02l-4.906-3.616a2.072,2.072,0,0,0-2.485.021l-4.842,3.7A2.07,2.07,0,0,1,635.386,423.226Z" transform="translate(-550.807 273.34)"/></g></svg>