<svg xmlns="http://www.w3.org/2000/svg" xmlns:xlink="http://www.w3.org/1999/xlink" width="319.268" height="418.393" viewBox="0 0 319.268 418.393"><defs><style>.a{opacity:0.81;fill:url(#a);}.b{opacity:0.11;fill:url(#b);}.c{fill:#6c63ff;}.d{fill:none;stroke:#ff00b2;stroke-linecap:round;stroke-linejoin:round;stroke-width:2px;stroke-dasharray:0 5;}</style><linearGradient id="a" x1="0.5" y1="0.003" x2="0.5" y2="1.014" gradientUnits="objectBoundingBox"><stop offset="0" stop-color="#9568ff"/><stop offset="1" stop-color="#d437c7"/></linearGradient><linearGradient id="b" x1="0.301" y1="0.744" x2="1.027" y2="-0.04" gradientUnits="objectBoundingBox"><stop offset="0" stop-color="#9568ff"/><stop offset="1" stop-color="#9568ff" stop-opacity="0.4"/></linearGradient></defs><g transform="translate(-961 120)"><circle class="a" cx="7.742" cy="7.742" r="7.742" transform="translate(990.084 66.159)"/><path class="b" d="M319.268,286.5c-34.814,15.97-72.667,16.19-97.4-1.364-46.645-33.1-33.1-100.814-1.5-133.916S271.519,50.407,197.79,29.341,69.893,78.995,21.744,48.9C-3.358,33.213.025,13.88.3,0H319.268Z" transform="translate(961 0)"/><path class="c" d="M61.717,22.158a23.7,23.7,0,1,0,23.7,23.7A23.7,23.7,0,0,0,61.717,22.158Zm0,41.519A17.819,17.819,0,1,1,79.536,45.858,17.82,17.82,0,0,1,61.717,63.677Z" transform="translate(1115.983 115.842)"/><circle class="d" cx="96.5" cy="96.5" r="96.5" transform="translate(1058 -119)"/></g></svg>