<svg xmlns="http://www.w3.org/2000/svg" width="161.263" height="50.225" viewBox="0 0 161.263 50.225"><defs><style>.a{fill:#12008d;}.b{fill:#6c63ff;}.c{fill:#ff00b2;}</style></defs><g transform="translate(-365.737 -92)"><path class="a" d="M30.9-56.856,18.56-23.814v.067h9.122L44.652-70.7a15.6,15.6,0,0,0-7.777,4.153C33.438-63.086,30.9-56.856,30.9-56.856ZM15.548-54.528c-2.837-5.762-12.811-10.4-12.811-10.4l12.811,35.55,4.7-13.549A95.226,95.226,0,0,0,15.548-54.528Zm55.8,17.835a16.465,16.465,0,0,0,.268-3.22c0-9.323-5.7-16.635-14.958-16.635-9.323,0-16.031,7.311-16.031,16.635s7.043,16.7,16.366,16.7a15.194,15.194,0,0,0,13.348-7.445,12.08,12.08,0,0,0-5.607-1.714c-3.337-.184-5.125.976-7.741.976a7.2,7.2,0,0,1-7.177-5.3ZM56.659-48.431c3.756,0,5.768,2.281,6.506,5.5H49.75A6.78,6.78,0,0,1,56.659-48.431Zm34.41-8.116a10.281,10.281,0,0,0-7.512,3.287,5.339,5.339,0,0,0-3.1-2.817c-2.23-.7-5.825,0-5.825,0v32.33h8.921V-41.321c0-4.762,2.146-6.909,5.366-6.909s5.165,1.878,5.165,6.573v17.909h8.921V-41.321C103.008-51.248,98.447-56.547,91.068-56.547Zm29.284,26.686c-2.566-2.532-2.655-3.813-2.655-6.7V-47.492h7.512v-8.586H117.7v-9.256S113-64.016,110.77-61.7a8.048,8.048,0,0,0-1.993,5.625h-4.427v8.586h4.427v13.817c0,6.708,3.823,10.262,10.665,10.262a12.432,12.432,0,0,0,8.519-3.018S122.918-27.329,120.353-29.861Zm23.973-26.686A16.24,16.24,0,0,0,127.96-39.913c0,9.323,7.043,16.7,16.366,16.7s16.366-7.378,16.366-16.7A16.24,16.24,0,0,0,144.326-56.547Zm0,25.153c-4.829,0-7.647-3.689-7.647-8.519s2.817-8.519,7.647-8.519,7.647,3.689,7.647,8.519S149.155-31.394,144.326-31.394Z" transform="translate(363 165.436)"/><path class="b" d="M15.548-55.065c-2.837-5.762-12.811-10.4-12.811-10.4l12.811,35.55,4.7-13.549A95.226,95.226,0,0,0,15.548-55.065Z" transform="translate(363 165.973)"/><circle class="b" cx="5.5" cy="5.5" r="5.5" transform="translate(516 98)"/><circle class="c" cx="3" cy="3" r="3" transform="translate(510 92)"/></g></svg>