<svg xmlns="http://www.w3.org/2000/svg" width="87.263" height="27.191" viewBox="0 0 87.263 27.191"><defs><style>.a{fill:#fff;}.b{fill:#928bff;}.c{fill:#ff00b2;}.d{fill:#fcdb5b;}</style></defs><g transform="translate(-365.737 -92)"><path class="a" d="M17.985-63.205,11.3-45.317v.036h4.939L25.429-70.7a8.446,8.446,0,0,0-4.211,2.249A19.134,19.134,0,0,0,17.985-63.205Zm-8.312,1.26c-1.536-3.119-6.936-5.632-6.936-5.632L9.673-48.331l2.542-7.335A51.554,51.554,0,0,0,9.673-61.945Zm30.209,9.656a8.914,8.914,0,0,0,.145-1.743c0-5.048-3.087-9.006-8.1-9.006-5.048,0-8.679,3.958-8.679,9.006a8.823,8.823,0,0,0,8.86,9.042,8.226,8.226,0,0,0,7.226-4.031,6.54,6.54,0,0,0-3.036-.928c-1.807-.1-2.774.529-4.191.529a3.9,3.9,0,0,1-3.886-2.869Zm-7.953-6.355a3.418,3.418,0,0,1,3.522,2.978H28.189A3.671,3.671,0,0,1,31.929-58.644Zm18.629-4.394a5.566,5.566,0,0,0-4.067,1.779,2.891,2.891,0,0,0-1.676-1.525,8.062,8.062,0,0,0-3.154,0v17.5h4.83v-9.514c0-2.578,1.162-3.74,2.905-3.74s2.8,1.017,2.8,3.559v9.7h4.83v-9.514C57.022-60.169,54.553-63.038,50.558-63.038ZM66.412-48.591a3.967,3.967,0,0,1-1.438-3.626v-5.919h4.067v-4.648H64.975v-5.011a10.079,10.079,0,0,0-3.75,1.966,4.357,4.357,0,0,0-1.079,3.045h-2.4v4.648h2.4v7.481c0,3.631,2.07,5.556,5.774,5.556a6.73,6.73,0,0,0,4.612-1.634A9.254,9.254,0,0,1,66.412-48.591ZM79.391-63.038a8.792,8.792,0,0,0-8.86,9.006,8.823,8.823,0,0,0,8.86,9.042,8.823,8.823,0,0,0,8.86-9.042A8.792,8.792,0,0,0,79.391-63.038Zm0,13.618c-2.615,0-4.14-2-4.14-4.612s1.525-4.612,4.14-4.612,4.14,2,4.14,4.612S82.006-49.42,79.391-49.42Z" transform="translate(363 164.181)"/><path class="b" d="M9.673-59.836c-1.536-3.119-6.936-5.632-6.936-5.632L9.673-46.222l2.542-7.335A51.554,51.554,0,0,0,9.673-59.836Z" transform="translate(363 162.072)"/><circle class="c" cx="3" cy="3" r="3" transform="translate(447 95)"/><circle class="d" cx="1.5" cy="1.5" r="1.5" transform="translate(444 92)"/></g></svg>